<?xml version="1.0" encoding="utf-8"?>
<!-- Generator: Adobe Illustrator 18.0.0, SVG Export Plug-In . SVG Version: 6.00 Build 0)  -->
<!DOCTYPE svg PUBLIC "-//W3C//DTD SVG 1.1//EN" "http://www.w3.org/Graphics/SVG/1.1/DTD/svg11.dtd">
<svg version="1.1" id="Слой_1" xmlns="http://www.w3.org/2000/svg" xmlns:xlink="http://www.w3.org/1999/xlink" x="0px" y="0px"
	 width="32px" height="32px" viewBox="0 0 32 32" enable-background="new 0 0 32 32" xml:space="preserve">
<path fill="#00C853" d="M16,0C7.2,0,0,7.2,0,16c0,8.8,7.2,16,16,16c8.8,0,16-7.2,16-16C32,7.2,24.8,0,16,0z M16,2.5
	c7.5,0,13.5,6,13.5,13.5c0,7.5-6,13.5-13.5,13.5c-7.5,0-13.5-6-13.5-13.5C2.5,8.5,8.5,2.5,16,2.5z M14.8,8.6v2.5h2.5V8.6H14.8z
	 M14.8,13.5v9.8h2.5v-9.8H14.8z"/>
</svg>
