<?xml version="1.0" encoding="utf-8"?>
<!-- Generator: Adobe Illustrator 18.0.0, SVG Export Plug-In . SVG Version: 6.00 Build 0)  -->
<!DOCTYPE svg PUBLIC "-//W3C//DTD SVG 1.1//EN" "http://www.w3.org/Graphics/SVG/1.1/DTD/svg11.dtd">
<svg version="1.1" id="Слой_1" xmlns="http://www.w3.org/2000/svg" xmlns:xlink="http://www.w3.org/1999/xlink" x="0px" y="0px"
	 width="28px" height="28px" viewBox="0 0 28 28" enable-background="new 0 0 28 28" xml:space="preserve">
<path fill="#BDBDBD" d="M10.9,0c6,0,10.9,4.9,10.9,10.9c0,2.6-0.9,5-2.4,6.9l8.7,8.7L26.4,28l-8.7-8.7c-1.9,1.5-4.3,2.5-6.9,2.5
	C4.9,21.8,0,16.9,0,10.9S4.9,0,10.9,0z M10.9,2.2c-4.8,0-8.7,3.9-8.7,8.7c0,4.8,3.9,8.7,8.7,8.7c4.8,0,8.7-3.9,8.7-8.7
	C19.6,6.1,15.7,2.2,10.9,2.2z"/>
</svg>
