<?xml version="1.0" encoding="utf-8"?>
<!-- Generator: Adobe Illustrator 18.0.0, SVG Export Plug-In . SVG Version: 6.00 Build 0)  -->
<!DOCTYPE svg PUBLIC "-//W3C//DTD SVG 1.1//EN" "http://www.w3.org/Graphics/SVG/1.1/DTD/svg11.dtd">
<svg version="1.1" id="Слой_1" xmlns="http://www.w3.org/2000/svg" xmlns:xlink="http://www.w3.org/1999/xlink" x="0px" y="0px"
	 width="28px" height="32px" viewBox="0 0 28 32" enable-background="new 0 0 28 32" xml:space="preserve">
<path fill="#00C853" d="M20.7,0c-1.9,0-3.7,0.7-5.1,2.1L3,14.6C-1,18.6-1,25,3,29c4,4,10.5,4,14.5,0l8.4-8.3L24,18.8l-8.4,8.3
	c-3,2.9-7.7,2.9-10.7,0c-3-2.9-3-7.7,0-10.6L17.5,4c1.8-1.8,4.7-1.8,6.5,0c1.8,1.8,1.8,4.7,0,6.5L11.4,23c-0.6,0.6-1.7,0.6-2.3,0
	c-0.6-0.6-0.6-1.7,0-2.3L20.6,9.2l-1.9-1.9L7.2,18.8c-1.7,1.7-1.7,4.4,0,6c1.7,1.7,4.4,1.7,6.1,0l12.6-12.5c2.8-2.8,2.8-7.4,0-10.2
	C24.5,0.7,22.6,0,20.7,0z"/>
</svg>
