<?xml version="1.0" encoding="utf-8"?>
<!-- Generator: Adobe Illustrator 16.0.0, SVG Export Plug-In . SVG Version: 6.00 Build 0)  -->
<!DOCTYPE svg PUBLIC "-//W3C//DTD SVG 1.1//EN" "http://www.w3.org/Graphics/SVG/1.1/DTD/svg11.dtd">
<svg version="1.1" id="Слой_1" xmlns="http://www.w3.org/2000/svg" xmlns:xlink="http://www.w3.org/1999/xlink" x="0px" y="0px"
	 width="37.429px" height="65.011px" viewBox="0 0 37.429 65.011" enable-background="new 0 0 37.429 65.011" xml:space="preserve">
<g>
	<path fill="#BDBDBD" d="M18.714,0l-1.601,1.3c0,0-3.14,2.645-6.329,6.271c-3.188,3.627-6.708,8.173-6.709,13.232
		c0,3.466,0.849,8.403,1.83,13.231l-1.678,1.147c-3.192,2.218-4.804,6.121-4.041,9.942l1.524,7.496l0.687,3.595l3.05-1.989
		l6.709-4.513h13.113l6.71,4.513l3.05,1.989l0.687-3.595l1.524-7.496c0.764-3.821-0.849-7.725-4.041-9.942l-1.678-1.147
		c0.989-4.852,1.83-9.8,1.83-13.231c0.002-5.016-3.516-9.515-6.709-13.156C23.451,4.007,20.239,1.3,20.239,1.3L18.714,0z
		 M18.714,6.653c0.998,0.889,2.142,1.78,4.27,4.207c2.915,3.323,5.49,7.674,5.49,9.943c0,3.094-1.152,9.793-2.363,15.449
		c-0.998,4.655-1.661,7.279-1.982,8.566H13.301c-0.322-1.283-0.991-3.859-1.982-8.49c-1.206-5.636-2.363-12.342-2.363-15.525
		c0-2.382,2.587-6.642,5.489-9.943C16.578,8.434,17.73,7.521,18.714,6.653z M18.714,19.579c-2.725,0-4.956,2.238-4.956,4.972
		s2.231,4.895,4.956,4.895s4.956-2.161,4.956-4.895S21.439,19.579,18.714,19.579z M6.973,39.159c0.718,3.247,1.251,5.53,1.601,6.96
		l-2.821,1.912l-0.762-3.824C4.607,42.288,5.369,40.274,6.973,39.159z M30.38,39.159h0.076c1.604,1.115,2.365,3.129,1.982,5.048
		l-0.763,3.824l-2.821-1.912C29.201,44.687,29.667,42.388,30.38,39.159z M11.395,52.162c0,7.376,5.795,11.702,5.795,11.702
		l1.524,1.146l1.449-1.07c0,0,5.871-4.356,5.871-11.778h-4.881c0,3.004-1.293,4.963-2.439,6.271
		c-1.145-1.328-2.439-3.317-2.439-6.271H11.395z"/>
</g>
</svg>
