<?xml version="1.0" encoding="utf-8"?>
<!-- Generator: Adobe Illustrator 18.0.0, SVG Export Plug-In . SVG Version: 6.00 Build 0)  -->
<!DOCTYPE svg PUBLIC "-//W3C//DTD SVG 1.1//EN" "http://www.w3.org/Graphics/SVG/1.1/DTD/svg11.dtd">
<svg version="1.1" id="Слой_1" xmlns="http://www.w3.org/2000/svg" xmlns:xlink="http://www.w3.org/1999/xlink" x="0px" y="0px"
	 width="34px" height="30px" viewBox="0 0 34 30" enable-background="new 0 0 34 30" xml:space="preserve">
<path fill="#FFFFFF" d="M11.1,0l-0.4,0.6L0.4,18.4L0,19l0.4,0.7l5.2,9.5L5.9,30h0.8h20.7h0.8l0.4-0.7l5.2-9.5L34,19l-0.4-0.7
	L23.3,0.6L22.9,0h-0.7H11.8H11.1z M14.1,2.7h7.3l8.8,15h-7.3L14.1,2.7z M11.8,4l3.8,6.6L6.7,26L3,19.1L11.8,4z M17.2,13.2l2.7,4.6
	h-5.3L17.2,13.2z M13,20.5h17.3l-3.7,6.8H9L13,20.5z"/>
</svg>
