<?xml version="1.0" encoding="utf-8"?>
<!-- Generator: Adobe Illustrator 18.0.0, SVG Export Plug-In . SVG Version: 6.00 Build 0)  -->
<!DOCTYPE svg PUBLIC "-//W3C//DTD SVG 1.1//EN" "http://www.w3.org/Graphics/SVG/1.1/DTD/svg11.dtd">
<svg version="1.1" id="Слой_1" xmlns="http://www.w3.org/2000/svg" xmlns:xlink="http://www.w3.org/1999/xlink" x="0px" y="0px"
	 width="32px" height="36px" viewBox="0 0 32 36" enable-background="new 0 0 32 36" xml:space="preserve">
<path fill="#BDBDBD" d="M16,0c-2.2,0-4,1.7-4,3.9c0,2.1,1.8,3.9,4,3.9c2.2,0,4-1.7,4-3.9C20,1.7,18.2,0,16,0z M13,10.3l-0.3,0.2
	l-5.9,3.4c-0.7-0.7-1.7-1-2.7-1c-2.2,0-4,1.7-4,3.9c0,2.1,1.8,3.9,4,3.9c2.2,0,4-1.7,4-3.9c0-0.2,0-0.4,0-0.6l4-2.3v7.7l-3.5,6.8
	c-0.2,0-0.3,0-0.5,0c-2.2,0-4,1.7-4,3.9C4,34.3,5.8,36,8,36c2.2,0,4-1.7,4-3.9c0-1-0.4-2-1.1-2.7l3.3-6.3h3.7l3.3,6.3
	c-0.7,0.7-1.1,1.7-1.1,2.7c0,2.1,1.8,3.9,4,3.9c2.2,0,4-1.7,4-3.9c0-2.1-1.8-3.9-4-3.9c-0.2,0-0.3,0-0.5,0L20,21.5v-7.7l4,2.3
	c0,0.2,0,0.4,0,0.6c0,2.1,1.8,3.9,4,3.9c2.2,0,4-1.7,4-3.9c0-2.1-1.8-3.9-4-3.9c-1.1,0-2,0.4-2.8,1l-5.9-3.4L19,10.3h-0.4h-5.3H13z
	 M4,15.4c0.8,0,1.3,0.6,1.3,1.3C5.3,17.4,4.8,18,4,18c-0.8,0-1.3-0.6-1.3-1.3C2.7,16,3.2,15.4,4,15.4z M28,15.4
	c0.8,0,1.3,0.6,1.3,1.3c0,0.7-0.6,1.3-1.3,1.3c-0.8,0-1.3-0.6-1.3-1.3C26.7,16,27.2,15.4,28,15.4z M8,30.9c0.8,0,1.3,0.6,1.3,1.3
	c0,0.7-0.6,1.3-1.3,1.3c-0.8,0-1.3-0.6-1.3-1.3C6.7,31.4,7.2,30.9,8,30.9z M24,30.9c0.8,0,1.3,0.6,1.3,1.3c0,0.7-0.6,1.3-1.3,1.3
	c-0.8,0-1.3-0.6-1.3-1.3C22.7,31.4,23.2,30.9,24,30.9z"/>
</svg>
